<svg viewBox="0 0 200 197.532" xmlns="http://www.w3.org/2000/svg">
<path fill="rgb(102,187,106)" d="M199.925,93.818L199.979,95.622L200.000,97.427L199.987,99.233L199.940,101.040L199.859,102.846L199.745,104.652L199.596,106.456L199.414,108.258L199.197,110.057L198.947,111.853L198.664,113.644L198.346,115.431L197.995,117.212L197.611,118.986L197.193,120.754L196.742,122.514L196.258,124.266L195.741,126.009L195.191,127.743L194.609,129.466L193.994,131.178L193.348,132.879L192.669,134.568L191.958,136.244L191.216,137.907L190.443,139.555L189.639,141.189L188.804,142.808L187.939,144.411L187.044,145.997L186.119,147.566L185.165,149.118L184.182,150.651L183.171,152.165L182.131,153.660L181.063,155.135L179.968,156.590L178.846,158.023L177.697,159.435L176.523,160.824L175.326,162.195L174.151,163.585L172.950,164.953L171.723,166.298L170.470,167.621L169.192,168.920L167.890,170.195L166.564,171.446L165.214,172.671L163.841,173.872L162.445,175.046L161.027,176.194L159.588,177.316L158.127,178.410L156.646,179.476L155.145,180.515L153.625,181.525L152.086,182.506L150.529,183.459L148.954,184.381L147.363,185.274L145.754,186.137L144.130,186.969L142.491,187.770L140.837,188.540L139.170,189.279L137.491,189.991L135.799,190.671L134.095,191.319L132.379,191.935L130.653,192.519L128.916,193.069L127.170,193.587L125.415,194.072L123.652,194.523L121.880,194.941L120.103,195.325L118.318,195.676L116.529,195.993L114.734,196.276L112.935,196.526L111.133,196.741L109.327,196.922L107.520,197.069L105.711,197.182L103.902,197.279L102.096,197.393L100.287,197.473L98.478,197.520L96.668,197.532L94.858,197.511L93.049,197.455L91.241,197.366L89.436,197.242L87.633,197.085L85.834,196.894L84.039,196.670L82.249,196.411L80.465,196.120L78.687,195.795L76.915,195.437L75.151,195.046L73.395,194.622L71.648,194.165L69.911,193.676L68.183,193.155L66.467,192.601L64.761,192.016L63.068,191.400L61.387,190.752L59.719,190.073L58.065,189.363L56.426,188.623L54.801,187.852L53.192,187.052L51.599,186.223L50.023,185.364L48.464,184.477L46.922,183.561L45.400,182.617L43.896,181.646L42.411,180.647L40.946,179.622L39.502,178.570L38.078,177.493L36.676,176.389L35.296,175.261L33.938,174.108L32.603,172.931L31.291,171.731L30.003,170.507L28.739,169.260L27.500,167.992L26.285,166.702L25.096,165.390L23.932,164.058L22.795,162.706L21.684,161.334L20.599,159.944L19.542,158.535L18.512,157.108L17.510,155.663L16.536,154.202L15.590,152.725L14.672,151.232L13.784,149.724L12.925,148.202L12.095,146.665L11.294,145.116L10.523,143.554L9.782,141.980L9.072,140.394L8.391,138.797L7.726,137.198L7.052,135.607L6.409,134.004L5.796,132.391L5.213,130.769L4.660,129.137L4.138,127.496L3.646,125.848L3.186,124.192L2.756,122.530L2.357,120.862L1.989,119.187L1.652,117.508L1.346,115.825L1.072,114.138L0.829,112.448L0.617,110.755L0.436,109.060L0.286,107.364L0.168,105.667L0.081,103.970L0.025,102.273L0.000,100.578L0.006,98.884L0.043,97.192L0.111,95.504L0.210,93.818L0.339,92.137L0.499,90.460L0.689,88.788L0.909,87.122L1.160,85.462L1.440,83.809L1.750,82.164L2.090,80.526L2.448,78.895L2.814,77.269L3.209,75.652L3.633,74.043L4.086,72.444L4.567,70.855L5.077,69.277L5.614,67.709L6.180,66.153L6.773,64.610L7.393,63.078L8.040,61.560L8.714,60.056L9.391,58.556L10.094,57.070L10.822,55.597L11.577,54.140L12.356,52.697L13.162,51.270L13.992,49.859L14.846,48.464L15.725,47.086L16.628,45.726L17.555,44.383L18.505,43.059L19.433,41.723L20.382,40.403L21.354,39.100L22.350,37.816L23.367,36.550L24.407,35.303L25.469,34.076L26.552,32.868L27.618,31.646L28.697,30.434L29.797,29.242L30.919,28.069L32.062,26.917L33.225,25.785L34.409,24.673L35.614,23.584L36.837,22.515L38.080,21.469L39.342,20.445L40.622,19.443L41.921,18.465L43.236,17.510L44.569,16.579L45.919,15.672L47.285,14.789L48.666,13.930L50.063,13.097L51.475,12.289L52.901,11.506L54.342,10.749L55.795,10.018L57.262,9.313L58.741,8.634L60.233,7.982L61.735,7.357L63.249,6.760L64.773,6.189L66.308,5.646L67.851,5.131L69.404,4.644L70.966,4.184L72.535,3.753L74.112,3.350L75.695,2.976L77.285,2.630L78.881,2.313L80.478,2.004L82.074,1.677L83.676,1.379L85.285,1.110L86.898,0.870L88.517,0.658L90.141,0.476L91.768,0.323L93.399,0.200L95.032,0.105L96.668,0.041L98.305,0.006L99.944,-0.000L101.583,0.024L103.226,0.026L104.873,0.032L106.521,0.068L108.171,0.134L109.821,0.230L111.471,0.357L113.120,0.513L114.768,0.699L116.415,0.916L118.059,1.163L119.700,1.440L121.338,1.748L122.972,2.085L124.601,2.453L126.225,2.850L127.843,3.278L129.455,3.736L131.060,4.223L132.658,4.740L134.247,5.287L135.828,5.863L137.399,6.469L138.961,7.104L140.513,7.768L142.053,8.461L143.582,9.182L145.099,9.933L146.604,10.711L148.095,11.518L149.573,12.352L151.036,13.214L152.484,14.104L153.918,15.021L155.335,15.964L156.759,16.906L158.174,17.865L159.572,18.851L160.954,19.865L162.319,20.905L163.667,21.971L164.995,23.063L166.305,24.181L167.596,25.324L168.867,26.491L170.117,27.684L171.347,28.901L172.555,30.141L173.742,31.405L174.906,32.692L176.047,34.001L177.165,35.333L178.260,36.687L179.330,38.062L180.376,39.458L181.406,40.868L182.432,42.286L183.433,43.725L184.408,45.183L185.357,46.662L186.279,48.159L187.174,49.675L188.043,51.209L188.883,52.761L189.696,54.330L190.479,55.916L191.235,57.517L191.961,59.135L192.657,60.767L193.324,62.413L193.960,64.073L194.566,65.746L195.142,67.432L195.686,69.130L196.199,70.840L196.681,72.560L197.130,74.290L197.548,76.030L197.934,77.779L198.287,79.537L198.607,81.302L198.895,83.074L199.150,84.852L199.372,86.637L199.560,88.426L199.715,90.220L199.837,92.017Z" />
</svg>